<?xml version="1.0" encoding="iso-8859-1"?>
<!-- Uploaded to: SVG Repo, www.svgrepo.com, Generator: SVG Repo Mixer Tools -->
<svg height="800px" width="800px" version="1.1" id="Layer_1" xmlns="http://www.w3.org/2000/svg" xmlns:xlink="http://www.w3.org/1999/xlink" 
	 viewBox="0 0 511.999 511.999" xml:space="preserve">
<path style="fill:#9C695A;" d="M427.355,177.09h-90.507c-18.858,0-37.512-4.672-53.948-13.917l-46.422-26.007
	c-37.38-21.029-79.729-30.127-122.457-26.418l-24.77,2.179c-18.713,1.626-35.913,10.158-48.608,24.004
	c-12.695,13.846-19.587,31.827-19.587,50.613v109.684c0,9.181,7.246,16.175,16.426,16.175h432.194
	c9.181,0,16.834-6.994,16.834-16.175v-60.762C486.511,203.962,459.857,177.09,427.355,177.09z"/>
<path style="fill:#C97E67;" d="M253.784,146.861l-17.306-9.695c-37.38-21.029-79.729-30.127-122.457-26.418l-24.77,2.179
	c-18.713,1.626-35.913,10.158-48.608,24.004c-12.695,13.846-19.587,31.827-19.587,50.613v109.684
	c0,9.181,7.246,16.175,16.426,16.175h216.301V146.861z"/>
<path style="fill:#704335;" d="M458.805,296.778c0-9.181-7.443-16.623-16.623-16.623H77.576c-9.181,0-16.623,7.443-16.623,16.623
	v62.061c0,9.181,7.443,16.623,16.623,16.623h364.606c9.181,0,16.623-7.443,16.623-16.623V296.778z"/>
<path style="fill:#8F5543;" d="M253.784,280.155H77.576c-9.181,0-16.623,7.443-16.623,16.623v62.061
	c0,9.181,7.443,16.623,16.623,16.623h176.208V280.155z"/>
<path style="fill:#704335;" d="M61.381,222.527H30.786C13.507,222.527,0,236.304,0,253.583v131.336
	c0,9.181,6.893,17.141,16.074,17.141h60.019c9.181,0,16.997-7.96,16.997-17.141V253.583
	C93.091,236.304,78.661,222.527,61.381,222.527z"/>
<path style="fill:#8F5543;" d="M46.545,222.527H30.786C13.507,222.527,0,236.304,0,253.583v131.336
	c0,9.181,6.893,17.141,16.074,17.141h30.472V222.527z"/>
<path style="fill:#704335;" d="M480.29,222.527h-30.595c-17.278,0-30.786,13.777-30.786,31.056v131.336
	c0,9.181,6.893,17.141,16.074,17.141h60.019c9.181,0,16.997-7.96,16.997-17.141V253.583C512,236.304,497.57,222.527,480.29,222.527z
	"/>
<path style="fill:#804C3C;" d="M465.455,222.527h-15.759c-17.278,0-30.786,13.777-30.786,31.056v131.336
	c0,9.181,6.893,17.141,16.074,17.141h30.472V222.527z"/>
</svg>